<svg width="858" height="121" viewBox="0 0 858 121" fill="none" xmlns="http://www.w3.org/2000/svg">
<path fill-rule="evenodd" clip-rule="evenodd" d="M580.694 72.5998V97.3054H567.609V22.77H601.422C609.311 22.77 615.972 25.0987 620.683 29.5255C625.411 33.9686 627.907 40.2757 627.907 47.6849C627.907 55.142 625.414 61.453 620.68 65.8867C615.965 70.302 609.302 72.5998 601.422 72.5998H580.694ZM611.474 38.7196C609.329 36.7364 605.913 35.437 600.898 35.437H580.694V60.0378H600.898C605.913 60.0378 609.326 58.7385 611.47 56.7467C613.586 54.7803 614.821 51.8067 614.821 47.6851C614.821 43.624 613.591 40.6761 611.474 38.7196Z" fill="white"/>
<path d="M660.521 22.77H647.435V97.3049H698.312V84.5335H660.521V22.77Z" fill="white"/>
<path d="M775.822 22.77H762.737V65.0623C762.737 72.5083 760.294 77.467 756.877 80.5852C753.414 83.746 748.673 85.2663 743.684 85.2663C738.697 85.2663 733.986 83.7468 730.55 80.591C727.159 77.4758 724.737 72.5165 724.737 65.0623V22.77H711.651V64.8529C711.651 74.6499 714.889 83.0015 720.619 88.9188C726.353 94.841 734.409 98.1424 743.684 98.1424C753.014 98.1424 761.095 94.8134 766.842 88.8796C772.582 82.9512 775.822 74.6007 775.822 64.8529V22.77Z" fill="white"/>
<path d="M842.645 44.6501L842.925 46.9523H856.085L855.917 44.1769C855.561 38.3154 852.998 32.6719 847.919 28.5283C842.861 24.4023 835.524 21.9329 825.877 21.9329C816.835 21.9329 809.678 23.9708 804.721 27.8224C799.684 31.7368 797.194 37.3183 797.194 43.7071C797.194 50.7543 800.813 55.4241 805.825 58.583C810.673 61.6385 816.993 63.403 822.891 64.8677C823.931 65.1259 824.956 65.3747 825.962 65.6189L825.966 65.6198L825.968 65.6203C830.864 66.8082 835.305 67.886 838.771 69.4071C842.931 71.2331 844.615 73.2151 844.615 75.8451C844.615 78.9873 843.282 81.2234 840.726 82.8058C838.012 84.4855 833.805 85.476 828.18 85.476C822.396 85.476 817.462 84.4855 814.007 82.5205C810.686 80.6321 808.706 77.8564 808.496 73.8246L808.367 71.3437H794.871L795.109 74.1799C795.679 80.9593 798.282 87.081 803.75 91.4578C809.162 95.791 817.046 98.1427 827.657 98.1427C836.5 98.1427 843.967 96.306 849.295 92.4833C854.738 88.5781 857.701 82.7694 857.701 75.531C857.701 68.3992 854.09 63.638 849.056 60.4053C844.183 57.2762 837.833 55.4713 831.896 54.0034C830.627 53.6894 829.379 53.3913 828.161 53.1002C823.486 51.9831 819.251 50.9709 815.901 49.5759C811.647 47.8041 810.07 45.9411 810.07 43.6024C810.07 41.8107 810.586 39.6881 812.518 37.9668C814.499 36.201 818.372 34.4949 825.877 34.4949C831.855 34.4949 835.899 35.8064 838.476 37.6458C841 39.4473 842.31 41.8862 842.645 44.6501Z" fill="white"/>
<path fill-rule="evenodd" clip-rule="evenodd" d="M516.339 98.1423H531.041L498.693 21.9329H485.089L452.74 98.1423H467.443L476.112 77.5915H507.669L516.339 98.1423ZM491.891 39.8966L481.46 64.8542H502.322L491.891 39.8966Z" fill="white"/>
<path d="M419.624 98.1423H433.004V21.9329H419.624V98.1423Z" fill="white"/>
<path fill-rule="evenodd" clip-rule="evenodd" d="M330.013 21.9329H362.552C380.97 21.9329 397.767 36.4314 397.767 60.0378C397.767 83.6442 380.97 98.1427 362.552 98.1427H330.013V21.9329ZM343.393 85.1915H362.231C375.466 85.1915 384.388 74.1694 384.388 60.038C384.388 45.9065 375.466 34.8844 362.231 34.8844H343.393V85.1915Z" fill="white"/>
<path d="M263.52 34.9912H307.619V21.9329H250.14V98.1423H307.619V85.084H263.52V66.5668H302.909V53.4014H263.52V34.9912Z" fill="white"/>
<path d="M227.023 21.9329H213.689L190.078 53.7521L166.061 21.9329H152.741V98.1423H166.12V44.5111L190.113 74.8637L213.644 44.6098V98.1423H227.023V21.9329Z" fill="white"/>
<path fill-rule="evenodd" clip-rule="evenodd" d="M52.2821 120.282L104.243 90.2832V30.2812L52.2821 0.282227L0.320831 30.2812V90.2832L52.2821 120.282ZM96.8204 34.567L52.2821 8.85355L7.74387 34.567V85.9975L52.2821 111.711L96.8204 85.9975V34.567ZM52.2837 58.4059L80.1201 42.3313L85.6873 39.1171L74.5528 32.6888L52.2837 45.5455L30.0145 32.6888L18.88 39.1171L24.4473 42.3313L25.6015 42.9994L30.0145 45.5455L52.2837 58.4059ZM27.8065 49.4278L27.8176 49.4204L50.057 62.2622V75.1189L38.9225 68.6906L27.8065 62.2734V75.1264V81.5547V87.9831L16.6719 81.5547V55.8413V49.4129V42.9846L27.8065 49.4129V49.4278ZM76.7611 49.4278V49.4129L87.8957 42.9846V49.4129V55.8413V81.5547L76.7611 87.9831V81.5547V75.1264V62.2734L65.6451 68.6906L54.5106 75.1189V62.2622L76.75 49.4204L76.7611 49.4278Z" fill="url(#paint0_linear_25_39)"/>
<defs>
<linearGradient id="paint0_linear_25_39" x1="30.7873" y1="15.1743" x2="85.4656" y2="99.29" gradientUnits="userSpaceOnUse">
<stop stop-color="#FF48CC"/>
<stop offset="0.208333" stop-color="#FF17B0"/>
<stop offset="1" stop-color="#FF6B17"/>
</linearGradient>
</defs>
</svg>
